<svg width="152" height="40" viewBox="0 0 152 40" fill="none" xmlns="http://www.w3.org/2000/svg">
<path d="M61.8767 14.636C63.3727 14.636 64.5753 15.098 65.4847 16.022C66.4087 16.9313 66.8707 18.2073 66.8707 19.85V27H63.7907V20.268C63.7907 19.3147 63.5487 18.5887 63.0647 18.09C62.5807 17.5767 61.9207 17.32 61.0847 17.32C60.2487 17.32 59.5813 17.5767 59.0827 18.09C58.5987 18.5887 58.3567 19.3147 58.3567 20.268V27H55.2767V20.268C55.2767 19.3147 55.0347 18.5887 54.5507 18.09C54.0667 17.5767 53.4067 17.32 52.5707 17.32C51.72 17.32 51.0453 17.5767 50.5467 18.09C50.0627 18.5887 49.8207 19.3147 49.8207 20.268V27H46.7407V14.812H49.8207V16.286C50.2167 15.7727 50.7227 15.3693 51.3387 15.076C51.9693 14.7827 52.6587 14.636 53.4067 14.636C54.36 14.636 55.2107 14.8413 55.9587 15.252C56.7067 15.648 57.286 16.22 57.6967 16.968C58.0927 16.264 58.6647 15.6993 59.4127 15.274C60.1753 14.8487 60.9967 14.636 61.8767 14.636ZM75.2054 27.198C74.0321 27.198 72.9761 26.9413 72.0374 26.428C71.0987 25.9 70.3581 25.1593 69.8154 24.206C69.2874 23.2527 69.0234 22.1527 69.0234 20.906C69.0234 19.6593 69.2947 18.5593 69.8374 17.606C70.3947 16.6527 71.1501 15.9193 72.1034 15.406C73.0567 14.878 74.1201 14.614 75.2934 14.614C76.4667 14.614 77.5301 14.878 78.4834 15.406C79.4367 15.9193 80.1847 16.6527 80.7274 17.606C81.2847 18.5593 81.5634 19.6593 81.5634 20.906C81.5634 22.1527 81.2774 23.2527 80.7054 24.206C80.1481 25.1593 79.3854 25.9 78.4174 26.428C77.4641 26.9413 76.3934 27.198 75.2054 27.198ZM75.2054 24.514C75.7627 24.514 76.2834 24.382 76.7674 24.118C77.2661 23.8393 77.6621 23.4287 77.9554 22.886C78.2487 22.3433 78.3954 21.6833 78.3954 20.906C78.3954 19.7473 78.0874 18.86 77.4714 18.244C76.8701 17.6133 76.1294 17.298 75.2494 17.298C74.3694 17.298 73.6287 17.6133 73.0274 18.244C72.4407 18.86 72.1474 19.7473 72.1474 20.906C72.1474 22.0647 72.4334 22.9593 73.0054 23.59C73.5921 24.206 74.3254 24.514 75.2054 24.514ZM90.5767 14.636C92.0287 14.636 93.202 15.098 94.0967 16.022C94.9914 16.9313 95.4387 18.2073 95.4387 19.85V27H92.3587V20.268C92.3587 19.3 92.1167 18.5593 91.6327 18.046C91.1487 17.518 90.4887 17.254 89.6527 17.254C88.802 17.254 88.1274 17.518 87.6287 18.046C87.1447 18.5593 86.9027 19.3 86.9027 20.268V27H83.8227V14.812H86.9027V16.33C87.3134 15.802 87.834 15.3913 88.4647 15.098C89.11 14.79 89.814 14.636 90.5767 14.636ZM109.698 20.642C109.698 21.082 109.668 21.478 109.61 21.83H100.7C100.773 22.71 101.081 23.3993 101.624 23.898C102.166 24.3967 102.834 24.646 103.626 24.646C104.77 24.646 105.584 24.1547 106.068 23.172H109.39C109.038 24.3453 108.363 25.3133 107.366 26.076C106.368 26.824 105.144 27.198 103.692 27.198C102.518 27.198 101.462 26.9413 100.524 26.428C99.5996 25.9 98.8736 25.1593 98.3456 24.206C97.8323 23.2527 97.5756 22.1527 97.5756 20.906C97.5756 19.6447 97.8323 18.5373 98.3456 17.584C98.8589 16.6307 99.5776 15.8973 100.502 15.384C101.426 14.8707 102.489 14.614 103.692 14.614C104.85 14.614 105.884 14.8633 106.794 15.362C107.718 15.8607 108.429 16.572 108.928 17.496C109.441 18.4053 109.698 19.454 109.698 20.642ZM106.508 19.762C106.493 18.97 106.207 18.3393 105.65 17.87C105.092 17.386 104.41 17.144 103.604 17.144C102.841 17.144 102.196 17.3787 101.668 17.848C101.154 18.3027 100.839 18.9407 100.722 19.762H106.508ZM123.606 14.812L116.06 32.764H112.782L115.422 26.692L110.538 14.812H113.992L117.138 23.326L120.328 14.812H123.606ZM130.854 17.342H128.72V27H125.596V17.342H124.21V14.812H125.596V14.196C125.596 12.7 126.021 11.6 126.872 10.896C127.723 10.192 129.006 9.862 130.722 9.906V12.502C129.974 12.4873 129.453 12.612 129.16 12.876C128.867 13.14 128.72 13.6167 128.72 14.306V14.812H130.854V17.342ZM144.356 14.812V27H141.254V25.46C140.858 25.988 140.337 26.406 139.692 26.714C139.061 27.0073 138.372 27.154 137.624 27.154C136.671 27.154 135.827 26.956 135.094 26.56C134.361 26.1493 133.781 25.5553 133.356 24.778C132.945 23.986 132.74 23.0473 132.74 21.962V14.812H135.82V21.522C135.82 22.49 136.062 23.238 136.546 23.766C137.03 24.2793 137.69 24.536 138.526 24.536C139.377 24.536 140.044 24.2793 140.528 23.766C141.012 23.238 141.254 22.49 141.254 21.522V14.812H144.356ZM150.475 10.72V27H147.395V10.72H150.475Z" fill="white"/>
<path d="M34.1422 5.85781C30.3647 2.08031 25.3422 0 20 0C14.6578 0 9.63531 2.08031 5.85781 5.85781C2.08031 9.63531 0 14.6578 0 20C0 25.3422 2.08039 30.3646 5.85781 34.1422C9.63523 37.9198 14.6578 40 20 40C25.3422 40 30.3647 37.9197 34.1422 34.1422C37.9197 30.3647 40 25.3422 40 20C40 14.6578 37.9196 9.63539 34.1422 5.85781Z" fill="#33CC95"/>
<g clip-path="url(#clip0)">
<path d="M20.5714 8V33.1429" stroke="white" stroke-width="2" stroke-linecap="round" stroke-linejoin="round"/>
<path d="M26.2857 12.5714H17.7143C16.6534 12.5714 15.636 12.9929 14.8859 13.743C14.1357 14.4931 13.7143 15.5106 13.7143 16.5714C13.7143 17.6323 14.1357 18.6497 14.8859 19.3999C15.636 20.15 16.6534 20.5714 17.7143 20.5714H23.4286C24.4894 20.5714 25.5069 20.9929 26.257 21.743C27.0072 22.4932 27.4286 23.5106 27.4286 24.5714C27.4286 25.6323 27.0072 26.6497 26.257 27.3999C25.5069 28.15 24.4894 28.5714 23.4286 28.5714H13.7143" stroke="white" stroke-width="2" stroke-linecap="round" stroke-linejoin="round"/>
</g>
<defs>
<clipPath id="clip0">
<rect width="27.4286" height="27.4286" fill="white" transform="translate(6.85715 6.85714)"/>
</clipPath>
</defs>
</svg>
